<?xml version="1.0" encoding="UTF-8" standalone="no"?>
<!-- Created with Inkscape (http://www.inkscape.org/) -->

<svg
   width="2048"
   height="2048"
   viewBox="0 0 541.86665 541.86666"
   version="1.1"
   id="svg1"
   inkscape:version="1.3.2 (091e20ef0f, 2023-11-25)"
   sodipodi:docname="logo.svg"
   inkscape:export-filename="logo.png"
   inkscape:export-xdpi="96"
   inkscape:export-ydpi="96"
   xmlns:inkscape="http://www.inkscape.org/namespaces/inkscape"
   xmlns:sodipodi="http://sodipodi.sourceforge.net/DTD/sodipodi-0.dtd"
   xmlns:xlink="http://www.w3.org/1999/xlink"
   xmlns="http://www.w3.org/2000/svg"
   xmlns:svg="http://www.w3.org/2000/svg">
  <sodipodi:namedview
     id="namedview1"
     pagecolor="#ffffff"
     bordercolor="#000000"
     borderopacity="0.25"
     inkscape:showpageshadow="true"
     inkscape:pageopacity="0.0"
     inkscape:pagecheckerboard="true"
     inkscape:deskcolor="#d1d1d1"
     inkscape:document-units="px"
     labelstyle="default"
     inkscape:zoom="0.35355339"
     inkscape:cx="1158.2409"
     inkscape:cy="1043.6896"
     inkscape:window-width="1920"
     inkscape:window-height="1008"
     inkscape:window-x="0"
     inkscape:window-y="0"
     inkscape:window-maximized="1"
     inkscape:current-layer="layer2"
     showguides="true"
     inkscape:lockguides="false" />
  <defs
     id="defs1">
    <linearGradient
       id="linearGradient19"
       inkscape:collect="always">
      <stop
         style="stop-color:#000000;stop-opacity:1;"
         offset="0"
         id="stop19" />
      <stop
         style="stop-color:#535353;stop-opacity:1;"
         offset="1"
         id="stop20" />
    </linearGradient>
    <linearGradient
       id="linearGradient21"
       inkscape:collect="always">
      <stop
         style="stop-color:#1f298f;stop-opacity:1;"
         offset="0"
         id="stop21" />
      <stop
         style="stop-color:#13192c;stop-opacity:1;"
         offset="1"
         id="stop24" />
    </linearGradient>
    <linearGradient
       id="linearGradient33"
       inkscape:collect="always">
      <stop
         style="stop-color:#262626;stop-opacity:1;"
         offset="0"
         id="stop32" />
      <stop
         style="stop-color:#1a1a1a;stop-opacity:1;"
         offset="1"
         id="stop33" />
    </linearGradient>
    <linearGradient
       id="linearGradient22"
       inkscape:collect="always">
      <stop
         style="stop-color:#f2b71c;stop-opacity:1;"
         offset="0"
         id="stop22" />
      <stop
         style="stop-color:#ecae19;stop-opacity:1;"
         offset="1"
         id="stop23" />
    </linearGradient>
    <linearGradient
       id="linearGradient46"
       inkscape:collect="always">
      <stop
         style="stop-color:#2993ff;stop-opacity:1;"
         offset="0"
         id="stop47" />
      <stop
         style="stop-color:#1f89f5;stop-opacity:1;"
         offset="0.5"
         id="stop49" />
      <stop
         style="stop-color:#2993ff;stop-opacity:1;"
         offset="1"
         id="stop48" />
    </linearGradient>
    <linearGradient
       id="linearGradient43"
       inkscape:collect="always">
      <stop
         style="stop-color:#2e2e2e;stop-opacity:1;"
         offset="0"
         id="stop44" />
      <stop
         style="stop-color:#262626;stop-opacity:1;"
         offset="0.5"
         id="stop46" />
      <stop
         style="stop-color:#2e2e2e;stop-opacity:1;"
         offset="1"
         id="stop45" />
    </linearGradient>
    <linearGradient
       id="linearGradient37"
       inkscape:collect="always">
      <stop
         style="stop-color:#292929;stop-opacity:1;"
         offset="0"
         id="stop39" />
      <stop
         style="stop-color:#1f1f1f;stop-opacity:1;"
         offset="0.5"
         id="stop40" />
      <stop
         style="stop-color:#292929;stop-opacity:1;"
         offset="1"
         id="stop38" />
    </linearGradient>
    <linearGradient
       id="swatch36"
       inkscape:swatch="solid">
      <stop
         style="stop-color:#131313;stop-opacity:1;"
         offset="0"
         id="stop37" />
    </linearGradient>
    <linearGradient
       inkscape:collect="always"
       xlink:href="#linearGradient37"
       id="linearGradient39"
       x1="146.62721"
       y1="370.75101"
       x2="411.54956"
       y2="370.75101"
       gradientUnits="userSpaceOnUse"
       spreadMethod="reflect"
       gradientTransform="translate(50.748453)" />
    <linearGradient
       inkscape:collect="always"
       xlink:href="#linearGradient43"
       id="linearGradient45"
       x1="77.205105"
       y1="217.40429"
       x2="480.97167"
       y2="217.40429"
       gradientUnits="userSpaceOnUse"
       gradientTransform="translate(50.748453)" />
    <linearGradient
       inkscape:collect="always"
       xlink:href="#linearGradient46"
       id="linearGradient48"
       x1="146.62712"
       y1="288.41236"
       x2="411.54945"
       y2="288.41236"
       gradientUnits="userSpaceOnUse"
       gradientTransform="translate(50.748453)" />
    <radialGradient
       inkscape:collect="always"
       xlink:href="#linearGradient22"
       id="radialGradient23"
       cx="312.07606"
       cy="101.368"
       fx="312.07606"
       fy="101.368"
       r="24.993575"
       gradientTransform="matrix(1,0,0,0.58664285,-1.6671926,41.901187)"
       gradientUnits="userSpaceOnUse" />
    <radialGradient
       inkscape:collect="always"
       xlink:href="#linearGradient33"
       id="radialGradient26"
       cx="281.48178"
       cy="75.151047"
       fx="281.48178"
       fy="75.151047"
       r="12.797582"
       gradientUnits="userSpaceOnUse"
       gradientTransform="translate(-2.1374937,-0.42034071)" />
    <filter
       inkscape:collect="always"
       style="color-interpolation-filters:sRGB"
       id="filter21"
       x="-0.058216228"
       y="-0.068010534"
       width="1.1164325"
       height="1.1360211">
      <feGaussianBlur
         inkscape:collect="always"
         stdDeviation="7.4938605"
         id="feGaussianBlur21" />
    </filter>
    <radialGradient
       inkscape:collect="always"
       xlink:href="#linearGradient21"
       id="radialGradient24"
       cx="270.93332"
       cy="270.93332"
       fx="270.93332"
       fy="270.93332"
       r="270.93332"
       gradientUnits="userSpaceOnUse" />
    <radialGradient
       inkscape:collect="always"
       xlink:href="#linearGradient33"
       id="radialGradient7"
       gradientUnits="userSpaceOnUse"
       gradientTransform="translate(48.790335,-0.42033944)"
       cx="281.48178"
       cy="75.151047"
       fx="281.48178"
       fy="75.151047"
       r="12.797582" />
    <linearGradient
       inkscape:collect="always"
       xlink:href="#linearGradient19"
       id="linearGradient20"
       x1="329.83676"
       y1="183.95662"
       x2="329.83676"
       y2="344.18777"
       gradientUnits="userSpaceOnUse" />
  </defs>
  <g
     inkscape:groupmode="layer"
     id="layer2"
     inkscape:label="Background">
    <rect
       style="opacity:1;fill:url(#radialGradient24);fill-opacity:1;stroke:none;stroke-width:8.46667;stroke-linecap:round;stroke-linejoin:round;stroke-opacity:1"
       id="rect21"
       width="541.86664"
       height="541.86664"
       x="0"
       y="0"
       ry="0"
       inkscape:label="Color" />
  </g>
  <g
     inkscape:groupmode="layer"
     id="layer4"
     inkscape:label="Wings"
     transform="translate(0.4468523,40.122988)"
     sodipodi:insensitive="true">
    <path
       id="path39"
       style="opacity:0.598979;fill:#a9f5ff;fill-opacity:1;stroke:none;stroke-width:2;stroke-linecap:round;stroke-linejoin:round;stroke-opacity:1"
       d="m 110.02481,103.76214 c -3.04698,-7.351107 -10.762919,-28.277945 -26.613369,5.8353 -8.367062,29.5312 -8.762091,58.85789 8.066693,104.89902 -24.74556,-4.49012 -38.507665,-36.8949 -45.206064,-26.2491 -10.210206,16.45528 2.67049,83.45242 38.960453,116.20485 -25.591299,3.10116 -40.345044,-19.375 -43.572983,-7.02028 -6.969327,27.15677 60.31265,100.485 137.27579,92.90496 8.22442,2.07555 34.49468,-15.87707 42.7054,-14.37432 41.53474,-6.00454 39.265,0.40194 39.26737,-41.55921 -0.007,-7.3086 -0.96311,-14.58537 -2.84427,-21.64778 -5.97419,-6.81371 -12.86338,-13.74315 -20.51864,-20.63853 -6.71003,-23.00808 -20.09065,-22.86524 -34.17673,-47.21934 -62.16018,-33.98948 -82.83264,-115.77677 -93.34365,-141.13557 z m 148.03902,208.99344 c -258.85861351,-307.2758113 -258.85861351,-307.2758113 0,0 z"
       sodipodi:nodetypes="scccccccccccscc"
       inkscape:label="RightWing" />
    <path
       id="path43"
       style="opacity:0.598979;fill:#a9f5ff;fill-opacity:1;stroke:none;stroke-width:2;stroke-linecap:round;stroke-linejoin:round;stroke-opacity:1"
       d="m 430.94814,103.76214 c 3.04698,-7.351101 10.76292,-28.277948 26.61337,5.8353 8.36706,29.5312 8.76209,58.85789 -8.06669,104.89902 24.74556,-4.49012 38.50766,-36.8949 45.20606,-26.2491 10.21021,16.45528 -2.67049,83.45242 -38.96045,116.20485 25.5913,3.10116 40.34504,-19.375 43.57298,-7.02028 6.96933,27.15677 -60.31265,100.485 -137.27579,92.90496 -8.22442,2.07555 -34.49468,-15.87707 -42.7054,-14.37432 -41.53474,-6.00454 -39.265,0.40194 -39.26737,-41.55921 0.007,-7.3086 0.96311,-14.58537 2.84427,-21.64778 5.97419,-6.81371 12.86338,-13.74315 20.51864,-20.63853 6.71003,-23.00808 20.09065,-22.86524 34.17673,-47.21934 62.16018,-33.98948 82.83264,-115.77677 93.34365,-141.13557 z M 282.90912,312.75558 c 258.85861,-307.2758099 258.85861,-307.2758099 0,0 z"
       sodipodi:nodetypes="scccccccccccscc"
       inkscape:label="LeftWing" />
  </g>
  <g
     inkscape:groupmode="layer"
     id="layer3"
     inkscape:label="CharacterBody"
     style="display:none"
     transform="translate(-2.080068,9.9081688)"
     sodipodi:insensitive="true">
    <path
       id="rect35"
       style="fill:#1f89f5;stroke-width:1.82316;stroke-linecap:round;stroke-linejoin:round"
       d="m 273.0134,229.92159 c 50.90348,0 91.88354,21.07988 91.88354,63.3795 v 109.31396 c 0,42.29962 -40.98006,63.0016 -91.88354,63.0016 -50.90349,0 -91.88355,-20.70198 -91.88355,-63.0016 V 293.30109 c 0,-42.29962 40.98006,-63.3795 91.88355,-63.3795 z"
       sodipodi:nodetypes="sssssss"
       inkscape:label="Body" />
    <path
       id="path35"
       style="fill:#fafafa;fill-opacity:1;stroke-width:1.52232;stroke-linecap:round;stroke-linejoin:round"
       d="m 273.0134,244.88523 c 40.65213,0 73.3793,18.40327 73.3793,55.33191 v 95.43387 c 0,36.92865 -32.72717,55.00201 -73.3793,55.00201 -40.65214,0 -73.37931,-18.07336 -73.37931,-55.00201 v -95.43387 c 0,-36.92864 32.72717,-55.33191 73.37931,-55.33191 z"
       sodipodi:nodetypes="sssssss"
       inkscape:label="Stomach" />
    <path
       id="rect36"
       style="fill:#1f89f5;stroke-width:2;stroke-linecap:round;stroke-linejoin:round"
       d="m 44.015673,258.53473 c 16.931266,5.95829 25.827453,14.25039 53.918682,10.9236 19.212065,-1.92204 52.885435,-18.77378 52.885435,-18.77378 14.26378,-3.33407 26.44089,11.79264 26.44089,26.44089 0,14.64825 -10.38644,19.31983 -25.0347,19.31983 0,0 -30.02415,13.6757 -55.31038,15.78109 -22.413368,2.72375 -51.713208,-8.66003 -51.713208,-8.66003 -14.235632,-3.45226 -26.256921,-17.89563 -26.256921,-32.54388 0,-14.64825 11.313126,-17.32898 25.070202,-12.48772 z"
       sodipodi:nodetypes="scssscsss"
       inkscape:label="RightHand" />
    <path
       id="path44"
       style="fill:#1f89f5;stroke-width:2;stroke-linecap:round;stroke-linejoin:round"
       d="m 502.01112,258.53473 c -16.93127,5.95829 -25.82746,14.25039 -53.91868,10.9236 -19.21207,-1.92204 -52.88544,-18.77378 -52.88544,-18.77378 -14.26378,-3.33407 -26.44089,11.79264 -26.44089,26.44089 0,14.64825 10.38644,19.31983 25.0347,19.31983 0,0 30.02415,13.6757 55.31038,15.78109 22.41337,2.72375 51.71321,-8.66003 51.71321,-8.66003 14.23563,-3.45226 26.25692,-17.89563 26.25692,-32.54388 0,-14.64825 -11.31313,-17.32898 -25.0702,-12.48772 z"
       sodipodi:nodetypes="scssscsss"
       inkscape:label="LeftHand" />
    <path
       id="path45"
       style="opacity:1;fill:#1f89f5;stroke-width:2.40283;stroke-linecap:round;stroke-linejoin:round"
       d="m 311.68081,225.4839 c 0,12.5097 -19.4822,15.5143 -41.98643,15.5143 -22.50421,0 -39.50855,-3.0046 -39.50855,-15.5143 0,-12.5097 18.24328,-22.65081 40.74749,-22.65081 22.50421,0 40.74749,10.14111 40.74749,22.65081 z"
       sodipodi:nodetypes="sssss"
       inkscape:label="Neck" />
  </g>
  <g
     inkscape:groupmode="layer"
     id="g12"
     inkscape:label="CharacterHead"
     transform="matrix(1.2476458,0,0,1.2476458,-116.347,56.770233)"
     style="display:inline"
     sodipodi:insensitive="true">
    <path
       id="path22"
       style="fill:#1f89f5;fill-opacity:1;stroke:none;stroke-width:1.60302;stroke-linecap:round;stroke-linejoin:round;stroke-opacity:1"
       d="m 312.52083,-13.468735 a 6.987411,16.896736 40.551922 0 0 -13.42643,9.0571293 6.987411,16.896736 40.551922 0 0 -5.67608,17.3811297 6.987411,16.896736 40.551922 0 0 11.83304,-3.8581966 6.987411,16.896736 40.551922 0 0 0.17769,7.9272096 6.987411,16.896736 40.551922 0 0 16.29429,-8.2958386 6.987411,16.896736 40.551922 0 0 5.67608,-17.3811308 6.987411,16.896736 40.551922 0 0 -11.80653,3.8349998 6.987411,16.896736 40.551922 0 0 -0.20419,-7.9040204 6.987411,16.896736 40.551922 0 0 -2.86787,-0.761282 z"
       inkscape:label="Hair" />
    <path
       id="path3"
       style="fill:#1f89f5;fill-opacity:1;stroke-width:1.93965;stroke-linecap:round;stroke-linejoin:round"
       d="m 405.55396,91.514007 c 0,57.557573 -38.0946,49.191903 -95.05539,49.191903 -56.96079,0 -95.23479,8.3151 -95.23479,-49.242473 C 215.26378,33.905857 253.3401,0 310.30089,0 c 56.96079,0 95.25307,33.956433 95.25307,91.514007 z"
       sodipodi:nodetypes="sssss"
       inkscape:label="Head" />
    <path
       id="path13"
       style="fill:#f7f7f7;fill-opacity:1;stroke-width:1.50849;stroke-linecap:round;stroke-linejoin:round"
       d="m 295.31698,16.782996 c -35.84721,5.38206 -58.90384,30.543919 -58.90384,70.03523 0,44.763244 29.76619,38.296144 74.06532,38.296144 44.29912,0 73.92614,6.50604 73.92614,-38.25721 0,-39.404226 -23.08342,-64.574813 -58.82638,-70.039372 -6.06841,4.581809 -11.19747,10.289676 -15.1068,16.811619 -3.91978,-6.538752 -9.06549,-12.258975 -15.15444,-16.846411 z"
       sodipodi:nodetypes="csssccc"
       inkscape:label="Face" />
    <path
       id="path18"
       style="fill:url(#radialGradient23);stroke-width:1.60302;stroke-linecap:round;stroke-linejoin:round"
       d="m 335.40244,104.15619 c 0,6.47216 -14.42227,11.87411 -24.89443,11.87411 -10.47217,0 -25.09271,-5.01886 -25.09271,-11.49102 0,-6.472162 14.62052,-17.833585 25.09271,-17.833584 10.47217,-10e-7 24.89443,10.978338 24.89443,17.450494 z"
       sodipodi:nodetypes="sssss"
       inkscape:label="Mouth" />
    <circle
       style="fill:#ffffff;fill-opacity:1;stroke:#737373;stroke-width:2.12066;stroke-linecap:round;stroke-linejoin:round;stroke-dasharray:none;stroke-opacity:1"
       id="path16"
       cx="279.41656"
       cy="71.628944"
       r="23.374563"
       inkscape:label="RightEye" />
    <circle
       style="fill:url(#radialGradient26);fill-opacity:1;stroke-width:1.60302;stroke-linecap:round;stroke-linejoin:round"
       id="path17"
       cx="284.94495"
       cy="79.374619"
       r="12.797582"
       inkscape:label="RightEyeBall" />
    <circle
       style="fill:#ffffff;fill-opacity:1;stroke:#737373;stroke-width:2.12066;stroke-linecap:round;stroke-linejoin:round;stroke-dasharray:none;stroke-opacity:1"
       id="circle17"
       cx="-341.40115"
       cy="71.628944"
       r="23.374563"
       transform="scale(-1,1)"
       inkscape:label="LeftEye" />
    <circle
       style="fill:url(#radialGradient7);fill-opacity:1;stroke-width:1.60302;stroke-linecap:round;stroke-linejoin:round"
       id="circle7"
       cx="335.87277"
       cy="79.374619"
       r="12.797582"
       inkscape:label="LeftEyeBall" />
  </g>
  <g
     inkscape:label="Hat"
     inkscape:groupmode="layer"
     id="layer1"
     transform="matrix(0.76684038,0,0,0.76684038,18.001116,124.62642)"
     style="display:inline">
    <path
       id="rect2"
       style="display:inline;opacity:1;fill:none;fill-opacity:1;stroke:#ffffff;stroke-width:11.041;stroke-linecap:round;filter:url(#filter21)"
       d="m 329.83682,146.39614 c -111.49692,0 -201.88323,30.70262 -201.88328,68.57616 v 4.86412 c 3e-5,20.63605 26.9602,39.09592 69.42189,51.66765 v 4.10734 147.82805 a 132.46127,68.576202 0 0 0 132.46139,68.57617 132.46127,68.576202 0 0 0 132.46139,-68.57617 V 271.50407 c 42.46169,-12.57173 69.42186,-31.0316 69.42189,-51.66765 v -4.86412 c -5e-5,-37.87354 -90.38637,-68.57616 -201.88328,-68.57616 z"
       inkscape:label="Stroke" />
    <g
       id="g1"
       style="display:inline"
       inkscape:label="Hat">
      <rect
         style="fill:url(#linearGradient20);fill-opacity:1;stroke-width:0.132465;stroke-linecap:round"
         id="rect17"
         width="264.92255"
         height="66.895355"
         x="197.37547"
         y="183.95662"
         ry="0"
         inkscape:label="Inside" />
      <path
         id="path1"
         style="fill:url(#linearGradient39);fill-opacity:1;stroke-width:0.233842;stroke-linecap:round"
         d="M 197.37567,249.48606 V 423.43978 A 132.46127,68.576202 0 0 0 329.83684,492.01595 132.46127,68.576202 0 0 0 462.298,423.43978 V 249.48606 Z"
         inkscape:label="Cylinder" />
      <path
         id="rect5"
         style="fill:url(#linearGradient48);fill-opacity:1;stroke-width:0.213609;stroke-linecap:round"
         d="m 197.37557,232.63695 v 42.97464 c 3e-5,37.87352 59.30496,68.57614 132.46117,68.57617 73.15619,-3e-5 132.46113,-30.70265 132.46116,-68.57617 V 232.63695 A 132.46127,68.576202 0 0 1 329.83674,301.21313 132.46127,68.576202 0 0 1 197.37557,232.63695 Z"
         inkscape:label="Line" />
      <path
         id="path15"
         style="fill:url(#linearGradient45);fill-opacity:1;stroke:none;stroke-width:52.9167;stroke-linecap:round;stroke-linejoin:round;stroke-dasharray:none;stroke-opacity:1"
         d="m 329.83684,146.39623 c -111.49703,0 -201.88323,30.70259 -201.88328,68.57617 v 4.86379 c 5e-5,37.87358 90.38625,68.57617 201.88328,68.57617 111.49702,0 201.88323,-30.70259 201.88328,-68.57617 v -4.86379 0 c -5e-5,-37.87358 -90.38626,-68.57617 -201.88328,-68.57617 z m 0,38.92579 c 59.23519,0.007 108.63654,13.67914 113.81217,31.49833 -3.24612,18.28009 -53.1905,32.61484 -113.81217,32.66571 -59.86264,-0.0553 -109.44198,-14.04953 -113.66025,-32.08176 4.21741,-18.03243 53.79699,-32.027 113.66025,-32.08228 z"
         sodipodi:nodetypes="scsssccsccccc"
         inkscape:label="Disc" />
    </g>
  </g>
</svg>
