<?xml version="1.0" encoding="UTF-8" standalone="no"?>
<!-- Created with Inkscape (http://www.inkscape.org/) -->

<svg
   width="2048"
   height="2048"
   viewBox="0 0 541.86665 541.86666"
   version="1.1"
   id="svg1"
   inkscape:version="1.3.2 (091e20ef0f, 2023-11-25)"
   sodipodi:docname="wiki.svg"
   inkscape:export-filename="wiki.png"
   inkscape:export-xdpi="6"
   inkscape:export-ydpi="6"
   xml:space="preserve"
   xmlns:inkscape="http://www.inkscape.org/namespaces/inkscape"
   xmlns:sodipodi="http://sodipodi.sourceforge.net/DTD/sodipodi-0.dtd"
   xmlns="http://www.w3.org/2000/svg"
   xmlns:svg="http://www.w3.org/2000/svg"><sodipodi:namedview
     id="namedview1"
     pagecolor="#ffffff"
     bordercolor="#000000"
     borderopacity="0.25"
     inkscape:showpageshadow="true"
     inkscape:pageopacity="0.0"
     inkscape:pagecheckerboard="true"
     inkscape:deskcolor="#d1d1d1"
     inkscape:document-units="px"
     labelstyle="default"
     inkscape:zoom="0.1767767"
     inkscape:cx="543.05801"
     inkscape:cy="712.76364"
     inkscape:window-width="1920"
     inkscape:window-height="1008"
     inkscape:window-x="0"
     inkscape:window-y="0"
     inkscape:window-maximized="1"
     inkscape:current-layer="layer4"
     showguides="false"
     inkscape:lockguides="false"><sodipodi:guide
       position="401.62243,60.711223"
       orientation="-0.70710678,-0.70710678"
       id="guide3"
       inkscape:locked="false" /></sodipodi:namedview><defs
     id="defs1"><linearGradient
       id="swatch36"
       inkscape:swatch="solid"><stop
         style="stop-color:#131313;stop-opacity:1;"
         offset="0"
         id="stop37" /></linearGradient></defs><g
     inkscape:groupmode="layer"
     id="layer4"
     inkscape:label="Wings"
     transform="translate(0.4468523,-2.3397933)"
     style="display:inline"><path
       id="path39"
       style="opacity:0.598979;fill:#a9f5ff;fill-opacity:1;stroke:none;stroke-width:2.35797;stroke-linecap:round;stroke-linejoin:round;stroke-opacity:1"
       d="M 81.305155,73.422825 C 77.712822,64.756008 68.615873,40.083655 49.928487,80.302537 40.063878,115.11926 39.598146,149.6949 59.438968,203.97653 30.264414,198.68276 14.039148,160.47813 6.1418594,173.02933 -5.8957837,192.4298 9.2903178,271.41818 52.075509,310.03269 21.903844,313.68889 4.5094524,287.18992 0.70377229,301.75591 -7.5129347,333.77324 71.811265,420.22585 162.54937,411.28913 c 9.69645,2.44703 40.66859,-18.71877 50.34888,-16.94706 48.96868,-7.07924 46.2927,0.47388 46.2955,-48.99753 -0.008,-8.61671 -1.13549,-17.19589 -3.35334,-25.52233 -7.04347,-8.03324 -15.16569,-16.20292 -24.1911,-24.33244 -7.911,-27.1261 -23.6865,-26.9577 -40.29372,-55.67073 C 118.06989,199.74607 93.69744,103.32038 81.305155,73.422825 Z M 255.84041,319.82221 c -305.189496,-362.272472 -305.189496,-362.272472 0,0 z"
       sodipodi:nodetypes="scccccccccccscc"
       inkscape:label="RightWing" /><path
       id="path43"
       style="opacity:0.598979;fill:#a9f5ff;fill-opacity:1;stroke:none;stroke-width:2.35797;stroke-linecap:round;stroke-linejoin:round;stroke-opacity:1"
       d="m 459.66779,73.422825 c 3.59234,-8.66681 12.68929,-33.339174 31.37667,6.879712 9.86462,34.816723 10.33035,69.392363 -9.51047,123.673993 29.17454,-5.29377 45.39981,-43.4984 53.2971,-30.9472 12.03765,19.40047 -3.14845,98.38885 -45.93365,137.00336 30.17167,3.6562 47.56605,-22.84277 51.37173,-8.27678 8.21672,32.01733 -71.10748,118.46994 -161.84559,109.53322 -9.69645,2.44703 -40.66859,-18.71877 -50.34888,-16.94706 -48.96868,-7.07924 -46.2927,0.47388 -46.2955,-48.99753 0.008,-8.61671 1.13549,-17.19589 3.35334,-25.52233 7.04347,-8.03324 15.16569,-16.20292 24.1911,-24.33244 7.911,-27.1261 23.6865,-26.9577 40.29372,-55.67073 73.2857,-40.07297 97.65815,-136.49866 110.05043,-166.396215 z M 285.13254,319.82221 c 305.18949,-362.27247 305.18949,-362.27247 0,0 z"
       sodipodi:nodetypes="scccccccccccscc"
       inkscape:label="LeftWing" /></g><g
     inkscape:groupmode="layer"
     id="layer5"
     inkscape:label="Book"
     style="fill:#1f89f5;fill-opacity:1"
     transform="matrix(1.2654817,0,0,1,259.28283,654.27802)"><rect
       style="fill:#1f1f1f;fill-opacity:1;stroke-width:0.82539;stroke-linecap:round;stroke-linejoin:round"
       id="rect7"
       width="232.59213"
       height="450.31052"
       x="-107.08968"
       y="-608.49994"
       rx="0"
       ry="12.955781"
       inkscape:label="Background" /><path
       id="rect10"
       style="fill:#ffffff;fill-opacity:1;stroke-width:0.733722;stroke-linecap:round;stroke-linejoin:round"
       d="m -91.464506,-209.1693 v 18.25025 c 0,7.1775 5.778098,12.95582 12.955593,12.95582 H 96.921661 c 7.177489,0 12.955599,-5.77832 12.955599,-12.95582 v -18.25025 z"
       sodipodi:nodetypes="csssscc"
       inkscape:label="Pages" /><path
       id="rect13"
       style="fill:#1f89f5;fill-opacity:1;stroke-width:0.733722;stroke-linecap:round;stroke-linejoin:round"
       d="m -52.436444,-588.72634 v 359.78122 0.002 H 109.87677 v -12.95763 -11.59718 -322.27241 c 0,-7.17748 -5.7781,-12.95581 -12.95559,-12.95581 z"
       inkscape:label="Cover" /><path
       id="rect15"
       style="fill:#777777;fill-opacity:1;stroke-width:0.733722;stroke-linecap:round;stroke-linejoin:round"
       d="m -79.763069,-588.72634 c -6.482641,0 -11.701437,5.21873 -11.701437,11.70137 v 332.85213 3.52819 11.70198 h 11.701437 11.701439 v -15.23017 -332.85213 -11.70137 z"
       inkscape:label="Spine" /><g
       id="g25"
       inkscape:label="Title"
       transform="matrix(1.1789815,0,0,1.1789815,-1.6477697,68.611575)"><rect
         style="opacity:1;fill:#11477f;fill-opacity:1;stroke-width:0.622335;stroke-linecap:round;stroke-linejoin:round"
         id="rect22"
         width="81.484207"
         height="11.85495"
         x="-25.698389"
         y="-506.3663"
         ry="5.0297804"
         inkscape:label="Line1" /><rect
         style="opacity:1;fill:#11477f;fill-opacity:1;stroke-width:0.622335;stroke-linecap:round;stroke-linejoin:round"
         id="rect23"
         width="91.381966"
         height="11.85495"
         x="-25.698389"
         y="-481.78461"
         ry="5.3081079"
         inkscape:label="Line2" /><rect
         style="opacity:1;fill:#11477f;fill-opacity:1;stroke-width:0.622335;stroke-linecap:round;stroke-linejoin:round"
         id="rect24"
         width="102.91232"
         height="11.854947"
         x="-25.698389"
         y="-457.20291"
         ry="5.3081079"
         inkscape:label="Line3" /></g></g></svg>
